HIERARCHY
ROOT hip
{
	OFFSET 0.000000 0.000000 0.000000 
	CHANNELS 6 Xposition Yposition Zposition Xrotation Zrotation Yrotation
	JOINT abdomen
	{
		OFFSET 0.000000 3.402643 0.000000 
		CHANNELS 3 Xrotation Zrotation Yrotation
		JOINT chest
		{
			OFFSET 0.000000 8.438565 -0.680529 
			CHANNELS 3 Xrotation Zrotation Yrotation
			JOINT neck
			{
				OFFSET 0.000000 10.207942 -0.272212 
				CHANNELS 3 Xrotation Zrotation Yrotation
				JOINT head
				{
					OFFSET 0.000000 3.130431 0.000000 
					CHANNELS 3 Xrotation Zrotation Yrotation
					End Site
					{
						OFFSET 0.000000 3.130435 0.000000 
					}
				}
			}
			JOINT lCollar
			{
				OFFSET 3.470700 6.669187 -0.816635 
				CHANNELS 3 Yrotation Zrotation Xrotation
				JOINT lShldr
				{
					OFFSET 3.198488 0.000000 0.000000 
					CHANNELS 3 Zrotation Yrotation Xrotation
					JOINT lForeArm
					{
						OFFSET 10.139888 0.000000 0.000000 
						CHANNELS 3 Yrotation Zrotation Xrotation
						JOINT lHand
						{
							OFFSET 8.370511 0.000000 0.000000 
							CHANNELS 3 Zrotation Yrotation Xrotation
							End Site
							{
								OFFSET 4.083176 0.000000 0.000000 
							}
						}
					}
				}
			}
			JOINT rCollar
			{
				OFFSET -3.470700 6.669187 -0.816635 
				CHANNELS 3 Yrotation Zrotation Xrotation
				JOINT rShldr
				{
					OFFSET -3.198488 0.000000 0.000000 
					CHANNELS 3 Zrotation Yrotation Xrotation
					JOINT rForeArm
					{
						OFFSET -10.139888 0.000000 0.000000 
						CHANNELS 3 Yrotation Zrotation Xrotation
						JOINT rHand
						{
							OFFSET -8.370511 0.000000 0.000000 
							CHANNELS 3 Zrotation Yrotation Xrotation
							End Site
							{
								OFFSET -4.083176 0.000000 0.000000 
							}
						}
					}
				}
			}
		}
	}
	JOINT lThigh
	{
		OFFSET 5.308129 -1.633274 1.361059 
		CHANNELS 3 Xrotation Zrotation Yrotation
		JOINT lShin
		{
			OFFSET -2.041588 -20.007561 0.000000 
			CHANNELS 3 Xrotation Zrotation Yrotation
			JOINT lFoot
			{
				OFFSET 0.000000 -19.190928 -1.224953 
				CHANNELS 3 Xrotation Yrotation Zrotation
				End Site
				{
					OFFSET 0.000000 -2.449906 4.627600 
				}
			}
		}
	}
	JOINT rThigh
	{
		OFFSET -5.308129 -1.633274 1.361059 
		CHANNELS 3 Xrotation Zrotation Yrotation
		JOINT rShin
		{
			OFFSET 2.041588 -20.007561 0.000000 
			CHANNELS 3 Xrotation Zrotation Yrotation
			JOINT rFoot
			{
				OFFSET 0.000000 -19.190928 -1.224953 
				CHANNELS 3 Xrotation Yrotation Zrotation
				End Site
				{
					OFFSET 0.000000 -2.449906 4.627600 
				}
			}
		}
	}
}
MOTION
Frames: 20
Frame Time: 0.011111
27.060307 50.329796 -102.121445 3.658279 -1.872813 6.612673 9.345161 0.513846 -4.407203 -12.312560 5.689047 -0.628607 -20.471674 -9.648992 -1.161844 32.949776 21.954767 0.636520 -2.946841 -9.472683 0.034639 -61.513462 -19.063179 39.193665 -47.343967 7.039981 7.100823 8.524705 12.647240 -44.134171 7.873402 6.594518 -1.033983 56.786335 6.610190 35.848698 55.305916 -8.730453 10.368528 -8.534408 -12.637552 62.454937 -7.606998 14.333860 15.302311 64.097267 -2.280168 -8.473793 -11.876654 9.634411 -1.288598 -13.352704 1.093089 -3.000107 27.912230 5.446828 4.549696 -17.803808 3.884301 4.122670 
27.021273 50.368828 -101.764900 3.681389 -2.030782 6.142101 9.395286 0.561325 -3.729036 -12.411132 5.628567 -0.445935 -20.444088 -9.734184 -1.263091 33.130924 22.154856 0.486384 -2.946841 -9.472683 0.034639 -61.283867 -18.461683 39.157948 -47.799885 7.159086 7.277190 8.524705 12.647240 -43.177135 7.873402 6.594518 -1.033983 56.457386 6.982113 36.738194 55.623661 -8.779259 10.499829 -8.534408 -12.637552 62.982281 -8.934827 14.636296 15.313359 64.877983 -2.164037 -8.531605 -12.450833 9.201159 -1.256185 -12.734161 1.464215 -2.520244 27.580154 5.466221 4.524351 -18.176392 4.045767 4.190138 
26.986504 50.382607 -101.420479 3.616328 -2.344274 5.800977 9.488797 0.848512 -3.202708 -12.284070 5.574149 -0.319261 -20.516731 -9.302921 -1.423591 33.154869 21.530237 0.105767 -2.946841 -9.472683 0.034639 -61.064461 -17.988089 39.118271 -48.370811 7.305647 7.504125 8.524705 12.647240 -42.054092 7.873402 6.594518 -1.033983 56.045277 7.855592 37.044262 55.770321 -8.795024 10.557815 -8.534408 -12.637552 62.513531 -10.290108 15.148193 15.202391 65.483124 -2.114447 -8.576713 -13.301130 9.152532 -1.112782 -11.960348 1.991001 -2.155778 27.216650 5.501194 4.450369 -18.806587 4.286353 4.252235 
26.952061 50.384575 -101.083282 3.482740 -2.524746 5.462089 9.726084 1.065831 -2.805711 -12.282837 5.675851 -0.215655 -20.536715 -9.441099 -1.399761 33.136650 21.354601 0.048796 -2.946841 -9.472683 0.034639 -61.169712 -17.583597 38.653442 -48.786896 7.410224 7.665133 8.524705 12.647240 -41.224010 7.873402 6.594518 -1.033983 55.392059 8.728658 37.546547 55.834042 -8.805649 10.590671 -8.534408 -12.637552 62.181496 -11.521984 15.523520 15.123242 66.000214 -2.046187 -8.612691 -14.276470 8.818182 -0.993333 -11.184054 2.371156 -1.876433 26.918186 5.495968 4.432618 -19.319500 4.375581 4.311684 
26.909750 50.390804 -100.763130 3.495045 -2.678534 5.080552 9.867340 1.188979 -2.373457 -12.370597 5.717796 -0.104638 -20.424454 -9.926555 -1.344162 33.007294 21.811842 0.137304 -2.946841 -9.472683 0.034639 -61.250256 -17.255863 37.928268 -48.984303 7.456954 7.742383 8.524705 12.647240 -40.618542 7.873402 6.594518 -1.033983 54.846848 9.369545 38.396992 56.014591 -8.833492 10.666921 -8.534408 -12.637552 62.445168 -12.899333 15.817876 15.076376 66.400139 -1.997484 -8.641732 -13.753944 8.810342 -1.081562 -10.673136 2.694692 -1.673393 26.756975 5.506337 4.410298 -19.425240 4.364399 4.300176 
26.893349 50.395397 -100.446274 3.671183 -2.583513 4.873906 9.774564 1.006378 -2.069223 -12.352378 5.585658 -0.012254 -20.225433 -9.980941 -1.467597 32.724182 22.021755 -0.087224 -2.946841 -9.472683 0.034639 -61.004318 -16.878513 37.277229 -49.254761 7.520958 7.849619 8.524705 12.647240 -39.788467 7.873402 6.594518 -1.033983 54.625008 10.050722 38.804806 56.120472 -8.848305 10.711806 -8.534408 -12.637552 62.327984 -14.371969 15.687690 14.841690 66.653679 -1.968292 -8.661963 -11.411241 10.240198 -1.285447 -10.441251 2.663562 -1.621728 26.737043 5.506238 4.408524 -19.384975 4.651624 4.422366 
26.886133 50.401962 -100.100868 3.875783 -2.197336 4.686412 9.603101 0.444030 -1.733356 -12.304623 5.461515 0.112623 -19.983976 -9.949247 -1.685266 32.397472 22.185389 -0.474535 -2.946841 -9.472683 0.034639 -60.500168 -16.299313 37.335308 -49.901257 7.674523 8.112666 8.524705 12.647240 -38.372448 7.873402 6.594518 -1.033983 54.644505 10.801187 38.630070 56.067532 -8.840933 10.690102 -8.534408 -12.637552 61.917831 -15.649876 15.188181 14.640840 66.701698 -1.949809 -8.682865 -16.692228 7.746251 -0.790995 -10.310536 2.323037 -1.385823 26.774902 5.520499 4.395717 -19.483816 4.918057 4.507249 
26.871372 50.384907 -99.766953 3.985593 -2.242429 4.219288 9.587127 0.417713 -1.184879 -12.423739 5.325952 0.259408 -19.993992 -9.943496 -1.695230 32.633667 22.247648 -0.425277 -2.946841 -9.472683 0.034639 -60.183651 -15.663304 37.424438 -50.507637 7.815299 8.358960 8.524705 12.647240 -37.200573 7.873402 6.594518 -1.033983 54.585579 11.482909 38.542130 56.036304 -8.838532 10.678344 -8.534408 -12.637552 61.585793 -16.971710 15.281798 14.588465 66.693069 -1.968328 -8.655360 -16.856712 6.929704 -0.971405 -10.057732 2.479521 -1.142462 26.856102 5.509709 4.420654 -19.739407 5.233180 4.620778 
26.860548 50.344559 -99.471733 4.028752 -2.641870 3.592655 9.707339 0.916657 -0.474497 -12.659381 5.298628 0.412227 -20.012283 -10.233897 -1.577396 32.926926 22.262314 -0.233113 -2.946841 -9.472683 0.034639 -60.344791 -15.281805 37.057404 -50.705677 7.854857 8.431593 8.524705 12.647240 -36.634167 7.873402 6.594518 -1.033983 54.180767 12.013583 38.619785 56.151691 -8.850648 10.723586 -8.534408 -12.637552 61.429546 -18.397375 15.809052 14.581946 66.633240 -1.959593 -8.683822 -17.700645 6.560194 -0.918865 -9.713824 3.025662 -1.025033 26.934383 5.519495 4.420102 -19.893778 5.684949 4.810597 
26.846111 50.308804 -99.173569 3.991678 -2.884801 3.322821 9.914851 1.216767 -0.034506 -12.874009 5.412193 0.505147 -19.784040 -10.610424 -1.577997 32.620743 22.335350 -0.316203 -2.946841 -9.472683 0.034639 -60.402771 -14.845032 37.025162 -51.124313 7.946061 8.602683 8.524705 12.647240 -35.979870 7.873402 6.594518 -1.033983 53.731487 12.371673 38.453659 56.598106 -8.917151 10.922412 -8.534408 -12.637552 61.341656 -19.774319 16.072838 14.242083 66.419449 -1.987848 -8.646805 -18.609774 6.064216 -0.907865 -9.267598 3.407606 -0.803615 26.987936 5.496250 4.438815 -20.314499 5.754642 4.860412 
26.835619 50.280594 -98.859985 3.875207 -2.886941 3.171502 10.266761 1.180969 0.119021 -13.020199 5.509306 0.534652 -19.824167 -10.479393 -1.603070 32.472553 22.063183 -0.436274 -2.946841 -9.472683 0.034639 -60.374897 -14.383400 36.750999 -51.585091 8.043021 8.795415 8.524705 12.647240 -35.706436 7.873402 6.594518 -1.033983 53.398590 12.872210 38.446468 57.127159 -8.981452 11.149326 -8.534408 -12.637552 61.224472 -20.907368 15.995088 13.809492 66.039040 -2.037372 -8.619802 -18.885916 5.878396 -0.923403 -8.745282 3.513874 -0.566865 27.067589 5.491674 4.473938 -21.241833 5.954235 4.972161 
26.824139 50.251400 -98.536896 3.827234 -2.785453 2.867367 10.500652 1.005557 0.348154 -12.921738 5.543840 0.623855 -20.194584 -10.510685 -1.547769 32.696041 22.053076 -0.410418 -2.946841 -9.472683 0.034639 -60.447071 -14.319351 35.948326 -51.670292 8.066952 8.834089 8.524705 12.647240 -35.706436 7.873402 6.594518 -1.033983 53.070625 13.855744 38.709541 57.147568 -8.980586 11.151402 -8.534408 -12.637552 61.370949 -21.931160 15.827315 13.612211 65.493225 -2.114430 -8.567843 -18.949158 6.395115 -0.762505 -8.344277 3.513356 -0.301855 27.230238 5.476266 4.475695 -22.187943 6.482397 5.226972 
26.816265 50.205811 -98.208549 3.935098 -2.604443 2.571503 10.469187 0.763347 0.648966 -12.844691 5.401832 0.722516 -20.295158 -10.740372 -1.552563 32.901962 22.452627 -0.354814 -2.946841 -9.472683 0.034639 -60.239967 -14.071751 35.578552 -51.910503 8.110955 8.927689 8.524705 12.647240 -35.227913 7.873402 6.594518 -1.033983 52.943600 14.686722 38.899776 57.127159 -8.981452 11.149326 -8.534408 -12.637552 61.742046 -23.069534 15.569001 13.479105 64.857971 -2.173922 -8.545674 -19.271786 7.025506 -0.506686 -8.190331 3.426738 -0.041577 27.409687 5.472307 4.509986 -22.377375 6.633907 5.291768 
26.815609 50.153324 -97.880859 4.072281 -2.495145 2.318521 10.437392 0.611006 0.876620 -13.082021 5.205844 0.779852 -20.196934 -10.622432 -1.599547 33.140675 22.475555 -0.333747 -2.946841 -9.472683 0.034639 -60.057041 -13.600604 35.054546 -51.994644 8.128262 8.959084 8.524705 12.647240 -35.042366 7.873402 6.594518 -1.033983 52.931080 15.147821 39.056057 57.307686 -9.003201 11.219587 -8.534408 -12.637552 62.122906 -24.262173 15.375437 13.252242 64.155670 -2.271298 -8.482623 -19.708157 7.101496 -0.421243 -8.055528 3.417430 0.186722 27.512154 5.456607 4.516076 -22.488073 6.553757 5.250590 
26.817907 50.117901 -97.544312 4.151317 -2.559274 2.075697 10.436626 0.626837 1.150306 -13.042750 5.212086 0.852117 -20.223904 -10.598050 -1.581774 32.938190 22.348890 -0.373566 -2.946841 -9.472683 0.034639 -60.238934 -13.641138 34.141109 -51.753143 8.079236 8.866050 8.524705 12.647240 -35.432995 7.873402 6.594518 -1.033983 52.729855 15.881236 38.981236 57.382263 -9.013351 11.252126 -8.534408 -12.637552 62.279156 -25.420067 15.371371 12.991502 63.335464 -2.359280 -8.422791 -19.927530 6.621054 -0.514407 -7.707473 3.541809 0.377034 27.541145 5.461580 4.519805 -22.938768 6.660903 5.322056 
26.829386 50.101830 -97.206787 4.191218 -2.654276 1.881045 10.446455 0.761393 1.418926 -12.797376 5.234868 0.934219 -20.361473 -10.803535 -1.564042 32.618351 22.355177 -0.500216 -2.946841 -9.472683 0.034639 -60.392567 -13.816942 33.587265 -51.701542 8.072175 8.844579 8.524705 12.647240 -35.530647 7.873402 6.594518 -1.033983 52.420475 16.709839 38.794090 57.540859 -9.030419 11.322291 -8.534408 -12.637552 62.376812 -26.498241 15.326871 12.599193 62.368938 -2.476112 -8.338217 -20.229620 6.167722 -0.599385 -7.271084 3.659714 0.460912 27.520378 5.466257 4.519112 -23.229425 6.872682 5.447743 
26.835291 50.081490 -96.875488 4.299345 -2.691131 1.667904 10.424682 0.802537 1.717111 -12.886938 5.105410 1.008099 -20.421227 -10.981771 -1.640386 32.749218 22.458912 -0.686592 -2.946841 -9.472683 0.034639 -60.320766 -13.577676 33.250256 -51.806019 8.091675 8.885391 8.524705 12.647240 -35.628307 7.873402 6.594518 -1.033983 52.320976 17.101357 38.647644 57.881134 -9.071391 11.470524 -8.534408 -12.637552 62.581890 -27.543772 15.181190 12.169776 61.274364 -2.593204 -8.260944 -20.724937 6.524345 -0.388273 -6.902841 3.750095 0.518995 27.424538 5.443545 4.515002 -23.466644 7.048278 5.501142 
26.837257 50.060497 -96.539932 4.456665 -2.781544 1.379603 10.311831 0.892164 2.253482 -13.046214 4.857427 1.139609 -20.061102 -11.267244 -1.750194 32.557995 22.864937 -0.825131 -2.946841 -9.472683 0.034639 -60.108212 -13.261269 33.175785 -51.815647 8.089571 8.887083 8.524705 12.647240 -35.745495 7.873402 6.594518 -1.033983 52.395443 17.326982 38.267876 58.253685 -9.115582 11.640338 -8.534408 -12.637552 62.650253 -28.601898 15.174572 11.843476 60.111866 -2.728424 -8.147663 -21.406071 6.687367 -0.190462 -6.559726 3.894947 0.565244 27.299812 5.472014 4.510001 -23.724356 7.110935 5.554015 
26.847427 50.042454 -96.203064 4.497005 -2.955019 1.080064 10.336869 1.104144 2.758053 -13.028455 4.666099 1.259110 -19.763517 -11.623124 -1.781108 32.154732 23.285366 -0.878820 -2.946841 -9.472683 0.034639 -60.006203 -13.186509 33.139767 -51.785488 8.090454 8.884156 8.524705 12.647240 -35.813854 7.873402 6.594518 -1.033983 52.335815 17.772591 37.879169 58.571918 -9.147006 11.778755 -8.534408 -12.637552 62.689308 -29.496605 15.278953 11.601918 58.879700 -2.876089 -8.042523 -22.212343 6.320110 -0.163480 -6.009592 4.126531 0.537683 27.148832 5.487039 4.461455 -23.873652 7.217390 5.624456 
26.858250 49.995872 -95.869133 4.527220 -3.110293 0.929164 10.396646 1.299435 2.893200 -12.940405 4.653519 1.285325 -19.817322 -11.673222 -1.758192 31.980486 23.221851 -0.911972 -2.946841 -9.472683 0.034639 -60.125465 -13.144908 32.638412 -51.879250 8.105859 8.917136 8.524705 12.647240 -36.028698 7.873402 6.594518 -1.033983 52.123257 18.435915 37.814625 58.785812 -9.173127 11.880305 -8.534408 -12.637552 62.806499 -30.446531 15.310612 11.245652 57.559193 -3.011182 -7.920704 -22.660170 6.137602 -0.137469 -5.473787 4.370709 0.784348 26.876223 5.505355 4.440873 -24.048800 7.222443 5.632658 
